# xmcd
#
# Track frame offsets:
#	150
#	16819
#	33295
#	52820
#	69157
#	85405
#	97817
#	111154
#	125737
#	143096
#	162692
#	180760
#	198127
#	214054
#	228821
#	240232
#	257216
#	270870
#	285905
#	303033
#	321140
#
# Disc length: 4487 seconds
#
# Revision: 0
# Processed by: cddbd v1.5.1PL2 Copyright (c) Steve Scherf et al.
# Submitted via: dBpowerAMP V4.0
#
DISCID=02118515
DTITLE=DJ Kadu - Space Mu 2006
DYEAR=2005
DGENRE=Dance
TTITLE0=Crazy Frog - Axel f.
TTITLE1=Amilcar Chocalate - Som de Preto
TTITLE2=Small Djs Shinning F.
TTITLE3=Bola de Fogo Atoladinha
TTITLE4=Chamada Pro Verão - Mãe Loira
TTITLE5=Kasino - Stay Tonight
TTITLE6=Benny Benassi - Wham Last Christmas
TTITLE7=Global Deejays - Star On
TTITLE8=Bob Sinclair - Love Generation
TTITLE9=João Bosco e Vinicius - Fala Sério
TTITLE10=Amor Amor - Kadoosolina
TTITLE11=Papito vem a mi - Lorna
TTITLE12=Dale Don - Don Osmar
TTITLE13=Gwen Stafani - Hollaback Girl
TTITLE14=Tati - Ai amor
TTITLE15=Festa no Quintal
TTITLE16=Wee rule - Ice Cream
TTITLE17=Gala - Faraway
TTITLE18=Caso Marcado
TTITLE19=Bruno e M and Calypso - Por que Choras
TTITLE20=Risca Faca - Pepe Moreno
EXTD=
EXTT0=
EXTT1=
EXTT2=
EXTT3=
EXTT4=
EXTT5=
EXTT6=
EXTT7=
EXTT8=
EXTT9=
EXTT10=
EXTT11=
EXTT12=
EXTT13=
EXTT14=
EXTT15=
EXTT16=
EXTT17=
EXTT18=
EXTT19=
EXTT20=
PLAYORDER=
